<svg width="30" height="30" viewBox="0 0 30 30" fill="none" xmlns="http://www.w3.org/2000/svg">
<rect y="0.000732422" width="30" height="29.9985" rx="3" fill="#233D2C"/>
<path fill-rule="evenodd" clip-rule="evenodd" d="M8.256 12.2369C8.41996 12.0913 8.64231 12.0095 8.87415 12.0095C9.106 12.0095 9.32835 12.0913 9.49231 12.2369L14.9945 17.1249L20.4968 12.2369C20.5774 12.1627 20.6739 12.1035 20.7806 12.0628C20.8872 12.0221 21.002 12.0007 21.1181 11.9998C21.2342 11.9989 21.3493 12.0185 21.4567 12.0576C21.5642 12.0967 21.6618 12.1543 21.7439 12.2273C21.826 12.3002 21.8909 12.3869 21.9349 12.4824C21.9789 12.5778 22.001 12.6801 22 12.7832C21.999 12.8864 21.9748 12.9883 21.929 13.0831C21.8832 13.1778 21.8166 13.2635 21.7331 13.3352L15.6127 18.7723C15.4487 18.918 15.2264 18.9998 14.9945 18.9998C14.7627 18.9998 14.5403 18.918 14.3764 18.7723L8.256 13.3352C8.09208 13.1895 8 12.992 8 12.786C8 12.5801 8.09208 12.3825 8.256 12.2369Z" fill="white"/>
</svg>
