<svg width="293" height="250" viewBox="0 0 293 250" fill="none" xmlns="http://www.w3.org/2000/svg">
<rect width="292.5" height="250" fill="#727D7D"/>
<path d="M96.795 162.387L96.69 162.493C95.2725 159.347 94.38 155.773 94.0125 151.827C94.38 155.72 95.3775 159.24 96.795 162.387Z" fill="#DDDDDD"/>
<path d="M130.5 116.36C137.401 116.36 142.995 110.677 142.995 103.667C142.995 96.6564 137.401 90.9734 130.5 90.9734C123.599 90.9734 118.005 96.6564 118.005 103.667C118.005 110.677 123.599 116.36 130.5 116.36Z" fill="#DDDDDD"/>
<path d="M168.248 71.6666H124.253C105.142 71.6666 93.75 83.24 93.75 102.653V147.347C93.75 153.16 94.7475 158.227 96.69 162.493C101.205 172.627 110.865 178.333 124.253 178.333H168.248C187.358 178.333 198.75 166.76 198.75 147.347V135.133V102.653C198.75 83.24 187.358 71.6666 168.248 71.6666ZM190.193 127.667C186.098 124.093 179.482 124.093 175.387 127.667L153.548 146.707C149.453 150.28 142.837 150.28 138.743 146.707L136.957 145.213C133.23 141.907 127.298 141.587 123.097 144.467L103.462 157.853C102.307 154.867 101.625 151.4 101.625 147.347V102.653C101.625 87.6133 109.448 79.6666 124.253 79.6666H168.248C183.053 79.6666 190.875 87.6133 190.875 102.653V128.253L190.193 127.667Z" fill="#DDDDDD"/>
</svg>
