<svg width="30" height="30" viewBox="0 0 30 30" fill="none" xmlns="http://www.w3.org/2000/svg">
<rect width="30" height="30" rx="3" transform="matrix(-1 0 0 1 30 0)" fill="#233D2C"/>
<path fill-rule="evenodd" clip-rule="evenodd" d="M19.4622 14.1849C19.4622 16.5216 17.5679 18.416 15.2311 18.416C12.8943 18.416 11 16.5216 11 14.1849C11 11.8481 12.8943 9.95374 15.2311 9.95374C17.5679 9.95374 19.4622 11.8481 19.4622 14.1849ZM17.9486 18.6557C17.1566 19.1381 16.2263 19.416 15.2311 19.416C12.3421 19.416 10 17.0739 10 14.1849C10 11.2958 12.3421 8.95374 15.2311 8.95374C18.1202 8.95374 20.4622 11.2958 20.4622 14.1849C20.4622 15.7157 19.8047 17.0929 18.7567 18.0495L21.3389 20.6318L20.6318 21.3389L17.9486 18.6557Z" fill="white"/>
</svg>
